<svg xmlns="http://www.w3.org/2000/svg" width="19.997" height="19.997" viewBox="0 0 48 48">
  <metadata><?xpacket begin="﻿" id="W5M0MpCehiHzreSzNTczkc9d"?>
<x:xmpmeta xmlns:x="adobe:ns:meta/" x:xmptk="Adobe XMP Core 5.6-c138 79.159824, 2016/09/14-01:09:01        ">
   <rdf:RDF xmlns:rdf="http://www.w3.org/1999/02/22-rdf-syntax-ns#">
      <rdf:Description rdf:about=""/>
   </rdf:RDF>
</x:xmpmeta>
                                                                                                    
                                                                                                    
                                                                                                    
                                                                                                    
                                                                                                    
                                                                                                    
                                                                                                    
                                                                                                    
                                                                                                    
                                                                                                    
                                                                                                    
                                                                                                    
                                                                                                    
                                                                                                    
                                                                                                    
                                                                                                    
                                                                                                    
                                                                                                    
                                                                                                    
                                                                                                    
                           
<?xpacket end="w"?></metadata>
<defs>
    <style>
      .cls-1 {
        fill-rule: evenodd;
      }
    </style>
  </defs>
  <path id="Shape_146_copy_15" data-name="Shape 146 copy 15" class="cls-1" d="M1365.44,6716.49a22.005,22.005,0,1,1-22.01,22,22.026,22.026,0,0,1,22.01-22m0-2a24.005,24.005,0,1,0,24,24,24.008,24.008,0,0,0-24-24h0Zm-9.01,34a0.96,0.96,0,0,1-.7-0.29,1,1,0,0,1,0-1.41l18-18a1,1,0,0,1,1.41,1.41l-18,18A0.966,0.966,0,0,1,1356.43,6748.49Zm18.01,0a0.966,0.966,0,0,1-.71-0.29l-18-18a1,1,0,1,1,1.41-1.41l18,18a1,1,0,0,1,0,1.41A0.96,0.96,0,0,1,1374.44,6748.49Z" transform="translate(-1341.44 -6714.5)"/>
</svg>
