<svg xmlns="http://www.w3.org/2000/svg" xmlns:xlink="http://www.w3.org/1999/xlink" width="48" height="47.34" viewBox="0 0 48 47.34">
  <metadata><?xpacket begin="﻿" id="W5M0MpCehiHzreSzNTczkc9d"?>
<x:xmpmeta xmlns:x="adobe:ns:meta/" x:xmptk="Adobe XMP Core 5.6-c138 79.159824, 2016/09/14-01:09:01        ">
   <rdf:RDF xmlns:rdf="http://www.w3.org/1999/02/22-rdf-syntax-ns#">
      <rdf:Description rdf:about=""/>
   </rdf:RDF>
</x:xmpmeta>
                                                                                                    
                                                                                                    
                                                                                                    
                                                                                                    
                                                                                                    
                                                                                                    
                                                                                                    
                                                                                                    
                                                                                                    
                                                                                                    
                                                                                                    
                                                                                                    
                                                                                                    
                                                                                                    
                                                                                                    
                                                                                                    
                                                                                                    
                                                                                                    
                                                                                                    
                                                                                                    
                           
<?xpacket end="w"?></metadata>
<defs>
    <style>
      .cls-1 {
        fill-rule: evenodd;
        fill: url(#linear-gradient);
      }
    </style>
    <linearGradient id="linear-gradient" x1="680.031" y1="2035.34" x2="680.031" y2="1988" gradientUnits="userSpaceOnUse">
      <stop offset="0" stop-color="#06408c"/>
      <stop offset="1" stop-color="#1c96d2"/>
    </linearGradient>
  </defs>
  <path id="ic-bus" class="cls-1" d="M698.162,2030H663.341a0.994,0.994,0,0,1-.894-0.55c-0.1-.2-2.42-4.95-2.42-14.56v-18.92c0-7.1,11.675-7.96,20.518-7.97h0.225c8.993,0.01,19.257.95,19.257,7.97v18.92a86.174,86.174,0,0,1-.882,14.29A1,1,0,0,1,698.162,2030ZM664,2028h33.3a98.713,98.713,0,0,0,.722-13.11v-18.92c0-4.06-5.519-5.96-17.37-5.97-12.361.01-18.63,2.02-18.63,5.97v18.92C662.027,2022.18,663.434,2026.54,664,2028Zm16.679-7.2c-4.512,0-9.094-.93-15.324-3.09a1,1,0,0,1-.672-0.95c0.012-7.31-.039-18.67-0.039-18.67,0.006-3.48,6.592-5.91,16.016-5.91s16,2.43,16,5.9c0,0,.035,13.35.044,18.66a1,1,0,0,1-.671.95C689.8,2019.87,685.2,2020.8,680.681,2020.8Zm-14-4.75c5.664,1.92,9.881,2.75,14,2.75s8.352-.83,14.028-2.77c-0.01-5.7-.042-17.94-0.042-17.94,0-1.32-4.234-3.91-14-3.91s-14.014,2.58-14.016,3.9C666.646,1998.08,666.694,2008.74,666.686,2016.05Zm-5.659-2.05h-4a1,1,0,0,1-1-1v-16a1,1,0,0,1,1-1h4a1,1,0,0,1,0,2h-3v14h3A1,1,0,0,1,661.027,2014Zm42,0h-3a1,1,0,0,1,0-2h2v-14h-2a1,1,0,0,1,0-2h3a1,1,0,0,1,1,1v16A1,1,0,0,1,703.027,2014Zm-35.371,12.48a3,3,0,1,1,3-3A3.006,3.006,0,0,1,667.656,2026.48Zm0-4a1,1,0,1,0,1,1A1,1,0,0,0,667.656,2022.48Zm26,4a3,3,0,1,1,3-3A3.006,3.006,0,0,1,693.658,2026.48Zm0-4a1,1,0,1,0,1,1A1,1,0,0,0,693.658,2022.48Zm-13-2.15a1,1,0,0,1-.707-1.71l6-6a1,1,0,1,1,1.414,1.41l-6,6.01A1.016,1.016,0,0,1,680.658,2020.33Zm0-3.94a1,1,0,0,1-.368-1.93l10.125-4a1,1,0,1,1,.734,1.86l-10.125,4A0.944,0.944,0,0,1,680.659,2016.39Zm11.368,18.96a3.987,3.987,0,0,1-4-3.96V2029h2v2.39a1.959,1.959,0,0,0,2,1.96,2.045,2.045,0,0,0,2-2.04V2029h2v2.31A4.023,4.023,0,0,1,692.027,2035.35Zm-24,0a3.987,3.987,0,0,1-4-3.96V2029h2v2.39a1.959,1.959,0,0,0,2,1.96,2.026,2.026,0,0,0,2-2.04V2029h2v2.31A4.023,4.023,0,0,1,668.027,2035.35Zm0.629-32.96a1,1,0,0,1-.707-1.71l2-2a1,1,0,1,1,1.414,1.42l-2,2A1.016,1.016,0,0,1,668.656,2002.39Zm0.418,3.92a1,1,0,0,1-.727-1.69l5.583-5.92a1,1,0,0,1,1.455,1.38l-5.583,5.91A1,1,0,0,1,669.074,2006.31Z" transform="translate(-656.031 -1988)"/>
</svg>
