<svg xmlns="http://www.w3.org/2000/svg" xmlns:xlink="http://www.w3.org/1999/xlink" width="45" height="47" viewBox="0 0 45 47">
  <metadata><?xpacket begin="﻿" id="W5M0MpCehiHzreSzNTczkc9d"?>
<x:xmpmeta xmlns:x="adobe:ns:meta/" x:xmptk="Adobe XMP Core 5.6-c138 79.159824, 2016/09/14-01:09:01        ">
   <rdf:RDF xmlns:rdf="http://www.w3.org/1999/02/22-rdf-syntax-ns#">
      <rdf:Description rdf:about=""/>
   </rdf:RDF>
</x:xmpmeta>
                                                                                                    
                                                                                                    
                                                                                                    
                                                                                                    
                                                                                                    
                                                                                                    
                                                                                                    
                                                                                                    
                                                                                                    
                                                                                                    
                                                                                                    
                                                                                                    
                                                                                                    
                                                                                                    
                                                                                                    
                                                                                                    
                                                                                                    
                                                                                                    
                                                                                                    
                                                                                                    
                           
<?xpacket end="w"?></metadata>
<defs>
    <style>
      .cls-1 {
        fill-rule: evenodd;
        fill: url(#linear-gradient);
      }
    </style>
    <linearGradient id="linear-gradient" x1="345.469" y1="2029" x2="345.469" y2="1982" gradientUnits="userSpaceOnUse">
      <stop offset="0" stop-color="#06408c"/>
      <stop offset="1" stop-color="#1c96d2"/>
    </linearGradient>
  </defs>
  <path id="ic-coffe" class="cls-1" d="M342.205,2028.07c-17.841,0-19.227-18.42-19.227-24.07v-1h38v1C360.976,2012.99,358.537,2028.07,342.205,2028.07ZM324.99,2005c0.177,7.06,2.4,21.07,17.215,21.07,14.017,0,16.58-12.76,16.76-21.07H324.99Zm33.986,24h-34v-2h34v2Zm4-10a5,5,0,1,1,5-5A5,5,0,0,1,362.976,2019Zm0-8a3,3,0,1,0,3,3A3.006,3.006,0,0,0,362.976,2011Zm-27-15a1.016,1.016,0,0,1-.707-0.29c-1.5-1.5-.8-3.46-0.235-5.04,0.52-1.47.8-2.4,0.235-2.96a1,1,0,1,1,1.414-1.42c1.495,1.5.8,3.47,0.235,5.05-0.521,1.46-.8,2.39-0.235,2.95A1,1,0,0,1,335.977,1996Zm4,1a1.016,1.016,0,0,1-.707-0.29c-1.424-1.43-.866-4.33-0.276-7.4,0.4-2.08.949-4.93,0.276-5.6a1,1,0,1,1,1.414-1.42c1.423,1.43.865,4.33,0.275,7.4-0.4,2.08-.95,4.93-0.275,5.6A1,1,0,0,1,339.977,1997Zm4-1a1.016,1.016,0,0,1-.707-0.29c-1.5-1.5-.8-3.46-0.236-5.04,0.521-1.47.8-2.4,0.236-2.96a1,1,0,1,1,1.414-1.42c1.495,1.5.8,3.47,0.235,5.05-0.522,1.46-.8,2.39-0.235,2.95A1,1,0,0,1,343.977,1996Z" transform="translate(-322.969 -1982)"/>
</svg>
