<svg xmlns="http://www.w3.org/2000/svg" xmlns:xlink="http://www.w3.org/1999/xlink" width="48" height="36.91" viewBox="0 0 48 36.91">
  <metadata><?xpacket begin="﻿" id="W5M0MpCehiHzreSzNTczkc9d"?>
<x:xmpmeta xmlns:x="adobe:ns:meta/" x:xmptk="Adobe XMP Core 5.6-c138 79.159824, 2016/09/14-01:09:01        ">
   <rdf:RDF xmlns:rdf="http://www.w3.org/1999/02/22-rdf-syntax-ns#">
      <rdf:Description rdf:about=""/>
   </rdf:RDF>
</x:xmpmeta>
                                                                                                    
                                                                                                    
                                                                                                    
                                                                                                    
                                                                                                    
                                                                                                    
                                                                                                    
                                                                                                    
                                                                                                    
                                                                                                    
                                                                                                    
                                                                                                    
                                                                                                    
                                                                                                    
                                                                                                    
                                                                                                    
                                                                                                    
                                                                                                    
                                                                                                    
                                                                                                    
                           
<?xpacket end="w"?></metadata>
<defs>
    <style>
      .cls-1 {
        fill-rule: evenodd;
        fill: url(#linear-gradient);
      }
    </style>
    <linearGradient id="linear-gradient" x1="1005" y1="1800" x2="1005" y2="1763.09" gradientUnits="userSpaceOnUse">
      <stop offset="0" stop-color="#06408c"/>
      <stop offset="1" stop-color="#1c96d2"/>
    </linearGradient>
  </defs>
  <path id="ic-date" class="cls-1" d="M987,1782h4v-4h-4v4Zm8,0h4v-4h-4v4Zm8,0h4v-4h-4v4Zm8,0h4v-4h-4v4Zm8,0h4v-4h-4v4Zm-32,8h4v-4h-4v4Zm8,0h4v-4h-4v4Zm8,0h4v-4h-4v4Zm8,0h4v-4h-4v4Zm8,0h4v-4h-4v4Zm6-22h-8v-3.92a1,1,0,0,0-2,0V1768H995v-3.92a1,1,0,0,0-2,0V1768h-8a4,4,0,0,0-4,4v24a4,4,0,0,0,4,4h40a4,4,0,0,0,4-4v-24A4,4,0,0,0,1025,1768Zm2,28a2.006,2.006,0,0,1-2,2H985a2,2,0,0,1-2-2v-24a2,2,0,0,1,2-2h8v2.08a1,1,0,0,0,2,0V1770h20v2.08a1,1,0,0,0,2,0V1770h8a2.006,2.006,0,0,1,2,2v24Z" transform="translate(-981 -1763.09)"/>
</svg>
