<svg xmlns="http://www.w3.org/2000/svg" xmlns:xlink="http://www.w3.org/1999/xlink" width="42" height="47.34" viewBox="0 0 42 47.34">
  <metadata><?xpacket begin="﻿" id="W5M0MpCehiHzreSzNTczkc9d"?>
<x:xmpmeta xmlns:x="adobe:ns:meta/" x:xmptk="Adobe XMP Core 5.6-c138 79.159824, 2016/09/14-01:09:01        ">
   <rdf:RDF xmlns:rdf="http://www.w3.org/1999/02/22-rdf-syntax-ns#">
      <rdf:Description rdf:about=""/>
   </rdf:RDF>
</x:xmpmeta>
                                                                                                    
                                                                                                    
                                                                                                    
                                                                                                    
                                                                                                    
                                                                                                    
                                                                                                    
                                                                                                    
                                                                                                    
                                                                                                    
                                                                                                    
                                                                                                    
                                                                                                    
                                                                                                    
                                                                                                    
                                                                                                    
                                                                                                    
                                                                                                    
                                                                                                    
                                                                                                    
                           
<?xpacket end="w"?></metadata>
<defs>
    <style>
      .cls-1 {
        fill-rule: evenodd;
        fill: url(#linear-gradient);
      }
    </style>
    <linearGradient id="linear-gradient" x1="1005" y1="2035" x2="1005" y2="1987.66" gradientUnits="userSpaceOnUse">
      <stop offset="0" stop-color="#06408c"/>
      <stop offset="1" stop-color="#1c96d2"/>
    </linearGradient>
  </defs>
  <path id="ic-gift" class="cls-1" d="M1023,2035H987a1,1,0,0,1-1-1v-26a1,1,0,0,1,1-1h36a1,1,0,0,1,1,1v26A1,1,0,0,1,1023,2035Zm-35-2h34v-24H988v24Zm37-24H985a1,1,0,0,1-1-1v-8a1,1,0,0,1,1-1h40a1,1,0,0,1,1,1v8A1,1,0,0,1,1025,2009Zm-39-2h38v-6H986v6Zm19,27a1,1,0,0,1-1-1v-33a1,1,0,0,1,2,0v33A1,1,0,0,1,1005,2034Zm-12.2-33c-4.206,0-6.5-4.35-6.5-6.59,0-2.27,1.811-4.92,6.916-4.92,4.6,0,10.081,4.26,12.9,8.26a1.008,1.008,0,0,1-.24,1.4,1,1,0,0,1-1.39-.25c-2.57-3.64-7.483-7.41-11.271-7.41-3.078,0-4.916,1.09-4.916,2.92,0,1.4,1.7,4.59,4.5,4.59A1,1,0,0,1,992.8,2001Zm25,0a1,1,0,0,1,0-2c2.8,0,4.5-3.19,4.5-4.59,0-1.83-1.83-2.92-4.91-2.92-3.79,0-8.7,3.77-11.27,7.41a1,1,0,1,1-1.63-1.15c2.81-4,8.3-8.26,12.9-8.26,5.1,0,6.91,2.65,6.91,4.92C1024.3,1996.65,1022.01,2001,1017.8,2001Zm-12.5-2.67a1,1,0,0,1-1-1c0-1.82-2.57-5.66-4.87-7.96a1.006,1.006,0,0,1,0-1.42,1,1,0,0,1,1.41,0c2.27,2.27,5.46,6.68,5.46,9.38A1,1,0,0,1,1005.3,1998.33Zm0,0a1,1,0,0,1-1-1c0-2.7,3.19-7.11,5.46-9.38a1,1,0,1,1,1.42,1.42c-2.31,2.3-4.88,6.14-4.88,7.96A1,1,0,0,1,1005.3,1998.33Z" transform="translate(-984 -1987.66)"/>
</svg>
