<svg xmlns="http://www.w3.org/2000/svg" xmlns:xlink="http://www.w3.org/1999/xlink" width="43" height="45.78" viewBox="0 0 43 45.78">
  <metadata><?xpacket begin="﻿" id="W5M0MpCehiHzreSzNTczkc9d"?>
<x:xmpmeta xmlns:x="adobe:ns:meta/" x:xmptk="Adobe XMP Core 5.6-c138 79.159824, 2016/09/14-01:09:01        ">
   <rdf:RDF xmlns:rdf="http://www.w3.org/1999/02/22-rdf-syntax-ns#">
      <rdf:Description rdf:about=""/>
   </rdf:RDF>
</x:xmpmeta>
                                                                                                    
                                                                                                    
                                                                                                    
                                                                                                    
                                                                                                    
                                                                                                    
                                                                                                    
                                                                                                    
                                                                                                    
                                                                                                    
                                                                                                    
                                                                                                    
                                                                                                    
                                                                                                    
                                                                                                    
                                                                                                    
                                                                                                    
                                                                                                    
                                                                                                    
                                                                                                    
                           
<?xpacket end="w"?></metadata>
<defs>
    <style>
      .cls-1 {
        fill-rule: evenodd;
        fill: url(#linear-gradient);
      }
    </style>
    <linearGradient id="linear-gradient" x1="681.031" y1="1804.75" x2="681.031" y2="1758.97" gradientUnits="userSpaceOnUse">
      <stop offset="0" stop-color="#06408c"/>
      <stop offset="1" stop-color="#1c96d2"/>
    </linearGradient>
  </defs>
  <path id="ic-man" class="cls-1" d="M681.15,1792.48c-6,0-10.889-6.44-11.348-12.14-1.349-.36-2.8-1.42-2.8-2.86v-4c0-1.25,1.21-2.15,2-2.61v-3.39a7.012,7.012,0,0,1,6.794-7,21.264,21.264,0,0,1,7.206-1.5c5.159,0,8,3.02,8,8.5v3.09c2,0.39,2,1.99,2,2.91v4c0,1.79-.737,2.52-1.448,2.81C691.2,1786.22,687.024,1792.48,681.15,1792.48Zm1.85-31.5a19.351,19.351,0,0,0-6.608,1.42,1.049,1.049,0,0,1-.393.08,5,5,0,0,0-5,5v4a1,1,0,0,1-.592.91,2.8,2.8,0,0,0-1.408,1.1v3.99a2.083,2.083,0,0,0,1.766,1,1,1,0,0,1,1,1c0,4.95,4.331,11,9.384,11,4.823,0,8.426-5.81,8.426-11a1,1,0,0,1,1-1c0.169,0,.424,0,0.424-1v-4c0-1,0-1-1-1a1,1,0,0,1-1-1v-4C689,1763.1,687.037,1760.98,683,1760.98Zm10.535,43.5a0.985,0.985,0,0,1-.707-0.29l-4-4a1,1,0,0,1,1.414-1.42l3.293,3.3,7.293-7.3a1,1,0,0,1,1.414,1.42l-8,8A0.985,0.985,0,0,1,693.535,1804.48Zm-33,.26a1,1,0,0,1-1-1c0-5.74,4.524-9.74,11-9.74h2.458l2.663-4.09a1,1,0,0,1,1.676,1.09l-2.959,4.55a1,1,0,0,1-.838.45h-3c-4.479,0-9,2.39-9,7.74A1,1,0,0,1,660.533,1804.74Z" transform="translate(-659.531 -1758.97)"/>
</svg>
