<svg xmlns="http://www.w3.org/2000/svg" xmlns:xlink="http://www.w3.org/1999/xlink" width="42.719" height="46.93" viewBox="0 0 42.719 46.93">
  <metadata><?xpacket begin="﻿" id="W5M0MpCehiHzreSzNTczkc9d"?>
<x:xmpmeta xmlns:x="adobe:ns:meta/" x:xmptk="Adobe XMP Core 5.6-c138 79.159824, 2016/09/14-01:09:01        ">
   <rdf:RDF xmlns:rdf="http://www.w3.org/1999/02/22-rdf-syntax-ns#">
      <rdf:Description rdf:about=""/>
   </rdf:RDF>
</x:xmpmeta>
                                                                                                    
                                                                                                    
                                                                                                    
                                                                                                    
                                                                                                    
                                                                                                    
                                                                                                    
                                                                                                    
                                                                                                    
                                                                                                    
                                                                                                    
                                                                                                    
                                                                                                    
                                                                                                    
                                                                                                    
                                                                                                    
                                                                                                    
                                                                                                    
                                                                                                    
                                                                                                    
                           
<?xpacket end="w"?></metadata>
<defs>
    <style>
      .cls-1 {
        fill-rule: evenodd;
        fill: url(#linear-gradient);
      }
    </style>
    <linearGradient id="linear-gradient" x1="343.61" y1="1804.59" x2="343.61" y2="1757.66" gradientUnits="userSpaceOnUse">
      <stop offset="0" stop-color="#06408c"/>
      <stop offset="1" stop-color="#1c96d2"/>
    </linearGradient>
  </defs>
  <path id="ic-time" class="cls-1" d="M343.607,1804.58a21.352,21.352,0,0,1-1.005-42.68,1,1,0,0,1,.092,2,19.361,19.361,0,1,0,13.679,4.79,1,1,0,1,1,1.32-1.5A21.345,21.345,0,0,1,343.607,1804.58Zm-11-9.1a0.975,0.975,0,0,1-.707-0.29,1,1,0,0,1,0-1.41l11-11a1,1,0,0,1,1.414,1.41l-11,11A0.974,0.974,0,0,1,332.605,1795.48Zm17.711-4.29a0.975,0.975,0,0,1-.707-0.29l-6.709-6.71a1,1,0,0,1,1.414-1.41l6.709,6.71a0.994,0.994,0,0,1,0,1.41A0.974,0.974,0,0,1,350.316,1791.19Zm-10.708-21.58a0.957,0.957,0,0,1-.556-0.17,1,1,0,0,1-.273-1.39l3.439-5.12-5.163-3.44a1,1,0,0,1,1.109-1.67l6,4a1.007,1.007,0,0,1,.426.64,1,1,0,0,1-.151.75l-4,5.96A0.987,0.987,0,0,1,339.608,1769.61Z" transform="translate(-322.25 -1757.66)"/>
</svg>
